HIERARCHY
ROOT hip
{
  OFFSET 0 0 0
  CHANNELS 6 Xposition Yposition Zposition Zrotation Yrotation Xrotation
  JOINT abdomen
  {
    OFFSET 0 20.6881 -0.73152
    CHANNELS 3 Zrotation Xrotation Yrotation
    JOINT chest
    {
      OFFSET 0 11.7043 -0.48768
      CHANNELS 3 Zrotation Xrotation Yrotation
      JOINT neck
      {
        OFFSET 0 22.1894 -2.19456
        CHANNELS 3 Zrotation Xrotation Yrotation
        JOINT head
        {
          OFFSET -0.24384 7.07133 1.2192
          CHANNELS 3 Zrotation Xrotation Yrotation
          JOINT leftEye
          {
            OFFSET 4.14528 8.04674 8.04672
            CHANNELS 3 Zrotation Xrotation Yrotation
            End Site
            {
              OFFSET 1 0 0
            }
          }
          JOINT rightEye
          {
            OFFSET -3.6576 8.04674 8.04672
            CHANNELS 3 Zrotation Xrotation Yrotation
            End Site
            {
              OFFSET 1 0 0
            }
          }
        }
      }
      JOINT rCollar
      {
        OFFSET -2.68224 19.2634 -4.8768
        CHANNELS 3 Zrotation Xrotation Yrotation
        JOINT rShldr
        {
          OFFSET -8.77824 -1.95073 1.46304
          CHANNELS 3 Zrotation Xrotation Yrotation
          JOINT rForeArm
          {
            OFFSET -28.1742 -1.7115 0.48768
            CHANNELS 3 Zrotation Xrotation Yrotation
            JOINT rHand
            {
              OFFSET -22.5879 0.773209 7.07136
              CHANNELS 3 Zrotation Xrotation Yrotation
              JOINT rThumb1
              {
                OFFSET -1.2192 -0.487915 3.41376
                CHANNELS 3 Zrotation Xrotation Yrotation
                JOINT rThumb2
                {
                  OFFSET -3.37035 -0.52449 3.41376
                  CHANNELS 3 Zrotation Xrotation Yrotation
                  End Site
                  {
                    OFFSET -1.78271 -1.18214 1.43049
                  }
                }
              }
              JOINT rIndex1
              {
                OFFSET -7.75947 0.938293 5.60832
                CHANNELS 3 Zrotation Xrotation Yrotation
                JOINT rIndex2
                {
                  OFFSET -2.54057 -0.884171 1.56538
                  CHANNELS 3 Zrotation Xrotation Yrotation
                  End Site
                  {
                    OFFSET -1.62519 -0.234802 1.16502
                  }
                }
              }
              JOINT rMid1
              {
                OFFSET -8.24714 1.18213 3.41376
                CHANNELS 3 Zrotation Xrotation Yrotation
                JOINT rMid2
                {
                  OFFSET -3.10165 -0.590103 1.0647
                  CHANNELS 3 Zrotation Xrotation Yrotation
                  End Site
                  {
                    OFFSET -2.48547 -0.328903 0.83742
                  }
                }
              }
              JOINT rRing1
              {
                OFFSET -8.82822 0.546677 1.51678
                CHANNELS 3 Zrotation Xrotation Yrotation
                JOINT rRing2
                {
                  OFFSET -2.60934 -0.819778 -0.0198488
                  CHANNELS 3 Zrotation Xrotation Yrotation
                  End Site
                  {
                    OFFSET -2.33842 -0.294052 0.168128
                  }
                }
              }
              JOINT rPinky1
              {
                OFFSET -8.27202 -0.0477905 -0.4584
                CHANNELS 3 Zrotation Xrotation Yrotation
                JOINT rPinky2
                {
                  OFFSET -1.82734 -0.647385 -0.700984
                  CHANNELS 3 Zrotation Xrotation Yrotation
                  End Site
                  {
                    OFFSET -1.69225 -0.51767 -0.607171
                  }
                }
              }
            }
          }
        }
      }
      JOINT lCollar
      {
        OFFSET 2.68224 19.2634 -4.8768
        CHANNELS 3 Zrotation Xrotation Yrotation
        JOINT lShldr
        {
          OFFSET 8.77824 -1.95073 1.46304
          CHANNELS 3 Zrotation Xrotation Yrotation
          JOINT lForeArm
          {
            OFFSET 28.1742 -1.7115 0.48768
            CHANNELS 3 Zrotation Xrotation Yrotation
            JOINT lHand
            {
              OFFSET 22.5879 0.773209 7.07136
              CHANNELS 3 Zrotation Xrotation Yrotation
              JOINT lThumb1
              {
                OFFSET 1.2192 -0.487915 3.41376
                CHANNELS 3 Zrotation Xrotation Yrotation
                JOINT lThumb2
                {
                  OFFSET 3.37035 -0.52449 3.41376
                  CHANNELS 3 Zrotation Xrotation Yrotation
                  End Site
                  {
                    OFFSET 1.78271 -1.18214 1.43049
                  }
                }
              }
              JOINT lIndex1
              {
                OFFSET 7.75947 0.938293 5.60832
                CHANNELS 3 Zrotation Xrotation Yrotation
                JOINT lIndex2
                {
                  OFFSET 2.54057 -0.884171 1.56538
                  CHANNELS 3 Zrotation Xrotation Yrotation
                  End Site
                  {
                    OFFSET 1.62519 -0.234802 1.16502
                  }
                }
              }
              JOINT lMid1
              {
                OFFSET 8.24714 1.18213 3.41376
                CHANNELS 3 Zrotation Xrotation Yrotation
                JOINT lMid2
                {
                  OFFSET 3.10165 -0.590103 1.0647
                  CHANNELS 3 Zrotation Xrotation Yrotation
                  End Site
                  {
                    OFFSET 2.48547 -0.328903 0.83742
                  }
                }
              }
              JOINT lRing1
              {
                OFFSET 8.82822 0.546677 1.51678
                CHANNELS 3 Zrotation Xrotation Yrotation
                JOINT lRing2
                {
                  OFFSET 2.60934 -0.819778 -0.0198488
                  CHANNELS 3 Zrotation Xrotation Yrotation
                  End Site
                  {
                    OFFSET 2.33842 -0.294052 0.168128
                  }
                }
              }
              JOINT lPinky1
              {
                OFFSET 8.27202 -0.0477905 -0.4584
                CHANNELS 3 Zrotation Xrotation Yrotation
                JOINT lPinky2
                {
                  OFFSET 1.82734 -0.647385 -0.700984
                  CHANNELS 3 Zrotation Xrotation Yrotation
                  End Site
                  {
                    OFFSET 1.69225 -0.51767 -0.607171
                  }
                }
              }
            }
          }
        }
      }
    }
  }
  JOINT rButtock
  {
    OFFSET -8.77824 4.35084 1.2192
    CHANNELS 3 Zrotation Xrotation Yrotation
    JOINT rThigh
    {
      OFFSET 0 -1.70687 -2.19456
      CHANNELS 3 Zrotation Xrotation Yrotation
      JOINT rShin
      {
        OFFSET 0 -36.8199 0.73152
        CHANNELS 3 Zrotation Xrotation Yrotation
        JOINT rFoot
        {
          OFFSET 0.73152 -45.1104 -5.12064
          CHANNELS 3 Zrotation Xrotation Yrotation
          End Site
          {
            OFFSET -1.1221 -3.69964 12.103
          }
        }
      }
    }
  }
  JOINT lButtock
  {
    OFFSET 8.77824 4.35084 1.2192
    CHANNELS 3 Zrotation Xrotation Yrotation
    JOINT lThigh
    {
      OFFSET 0 -1.70687 -2.19456
      CHANNELS 3 Zrotation Xrotation Yrotation
      JOINT lShin
      {
        OFFSET 0 -36.8199 0.73152
        CHANNELS 3 Zrotation Xrotation Yrotation
        JOINT lFoot
        {
          OFFSET -0.73152 -45.1104 -5.12064
          CHANNELS 3 Zrotation Xrotation Yrotation
          End Site
          {
            OFFSET 1.1221 -3.69964 12.103
          }
        }
      }
    }
  }
}
MOTION
Frames:	4
Frame Time:	0.00833333
52.832 85.1388 192.067 0.0 0.0 0.0 0.41059 -0.00336425 0.0117807 0.113459 -0.00539522 0.0196594 -1.35227e-15 0.0 -3.72721e-17 -4.1869e-15 3.18055e-15 -8.07563e-17 -0.0 0.0 0.0 -0.0 0.0 0.0 -6.97137e-16 -7.37677e-18 9.93923e-17 -1.23527e-14 -2.60905e-16 7.95139e-16 -2.49375e-13 7.15625e-14 9.54166e-15 -2.87802e-12 -1.02026e-13 -6.99722e-14 -6.78711e-12 -6.69487e-14 -1.24042e-13 -1.17235e-11 -1.145e-13 -2.29e-13 -6.78174e-12 -6.63941e-14 -1.36764e-13 7.73091 5.47488 0.417314 -6.78899e-12 -6.7388e-14 -1.27222e-13 2.90554 0.965183 0.102902 -6.78502e-12 -6.72886e-14 -1.28812e-13 10.2786 0.731801 0.0259123 -6.78909e-12 -6.44062e-14 -1.20861e-13 2.22167 -0.733487 -0.20892 -6.944e-16 -7.5709e-18 -9.93923e-17 -1.66805e-14 -3.72721e-16 -1.39149e-15 -2.53301e-13 -8.20981e-14 3.18055e-15 -2.87444e-12 4.03036e-14 -5.725e-14 -6.78402e-12 -8.76422e-14 -1.33583e-13 -1.17136e-11 -1.52667e-13 -2.17868e-13 -6.7881e-12 -8.74653e-14 -1.20861e-13 -7.73091 5.47488 -0.417314 -6.78427e-12 -8.75646e-14 -1.30403e-13 -2.90554 0.965183 -0.102902 -6.79123e-12 -8.74653e-14 -1.29608e-13 -10.2786 0.731801 -0.0259123 -6.77955e-12 -8.62725e-14 -1.43125e-13 -2.22167 -0.733487 0.20892 -2.03217e-16 0.0 -3.88251e-19 0.770595 -4.17183 -0.0656812 -0.0026548 2.00555 -0.0182697 -0.46182 2.16687 0.0960996 2.03217e-16 0.0 3.88251e-19 -0.143244 -2.55995 0.0260687 0.00716327 -0.914091 0.0621725 0.453783 3.47457 -0.121227
53.1782 83.5367 184.808 178.526 -1.6926 -160.475 -1.55637 -7.55619 -0.719001 0.858983 3.91053 -0.242318 -1.02803 4.24941 -0.153665 2.27423 -5.22926 -0.135394 -0.0 0.0 0.0 -0.0 0.0 0.0 8.21954e-15 -2.24493e-14 -1.09638e-14 22.541 5.78409 1.62306 -6.02582 -3.22896 8.81743 0.00392882 -1.39074 -0.195248 6.19237e-11 -7.04243e-10 2.87645e-11 1.08373e-10 -1.22029e-09 4.94436e-11 6.19277e-11 -7.04242e-10 2.87545e-11 7.73091 5.47488 0.417314 6.19216e-11 -7.04242e-10 2.87601e-11 2.90554 0.965183 0.102902 6.19255e-11 -7.04242e-10 2.87596e-11 10.2786 0.731801 0.0259123 6.1921e-11 -7.04239e-10 2.87674e-11 2.22167 -0.733487 -0.20892 8.18695e-15 -2.24498e-14 -1.11945e-14 -21.1815 8.35926 -2.34421 5.8907 -3.1216 -8.667 5.55963e-05 0.112242 -0.0157742 -1.62173e-10 -6.8805e-10 -1.26276e-10 -2.81661e-10 -1.19168e-09 -2.1787e-10 -1.62177e-10 -6.8805e-10 -1.26265e-10 -7.73091 5.47488 -0.417314 -1.62173e-10 -6.8805e-10 -1.26273e-10 -2.90554 0.965183 -0.102902 -1.6218e-10 -6.8805e-10 -1.26274e-10 -10.2786 0.731801 -0.0259123 -1.62169e-10 -6.88048e-10 -1.26286e-10 -2.22167 -0.733487 0.20892 -2.03217e-16 0.0 -3.88251e-19 0.711638 -9.46604 2.09568 0.00782015 4.55909 0.0663554 -0.748214 -4.72376 -2.3214 2.03217e-16 0.0 3.88251e-19 -0.553986 -7.9739 -2.38429 0.00541049 1.66853 0.0168354 0.461361 1.25966 0.124977
53.193 83.5303 184.827 178.595 -1.7007 -160.385 -3.85124 -15.5315 -1.53391 1.68664 8.05166 -0.522935 -2.09153 8.74213 -0.317824 4.65492 -10.7588 -0.27935 -0.0 0.0 0.0 -0.0 0.0 0.0 1.80506e-14 -4.72641e-14 -2.3e-14 46.0066 11.8809 3.39412 -11.3249 -6.38476 18.2228 -0.00223181 -2.85754 -0.401564 1.40424e-10 -1.4836e-09 5.98346e-11 2.45532e-10 -2.57074e-09 1.02869e-10 1.40427e-10 -1.4836e-09 5.98276e-11 7.73091 5.47488 0.417314 1.40422e-10 -1.4836e-09 5.98288e-11 2.90554 0.965183 0.102902 1.40426e-10 -1.4836e-09 5.98294e-11 10.2786 0.731801 0.0259123 1.40421e-10 -1.4836e-09 5.98372e-11 2.22167 -0.733487 -0.20892 1.79803e-14 -4.72649e-14 -2.32671e-14 -42.8185 17.1191 -4.95853 11.1227 -6.20082 -17.9401 0.000239175 0.253942 -0.0356884 -3.29652e-10 -1.43803e-09 -2.64523e-10 -5.72628e-10 -2.49061e-09 -4.56415e-10 -3.29655e-10 -1.43803e-09 -2.64514e-10 -7.73091 5.47488 -0.417314 -3.29652e-10 -1.43803e-09 -2.64519e-10 -2.90554 0.965183 -0.102902 -3.29658e-10 -1.43803e-09 -2.64523e-10 -10.2786 0.731801 -0.0259123 -3.29648e-10 -1.43803e-09 -2.64533e-10 -2.22167 -0.733487 0.20892 -2.03217e-16 0.0 -3.88251e-19 1.09716 -15.0218 4.47304 0.0107296 7.25591 0.15709 -1.6982 -12.0485 -4.96121 2.03217e-16 0.0 3.88251e-19 -1.49736 -13.6412 -5.01408 0.0079917 4.38444 -0.0309533 0.489207 -1.07468 0.376123
53.2005 83.5258 184.841 178.626 -1.6653 -160.32 -6.10904 -22.6466 -2.34254 2.45938 11.7414 -0.78092 -3.01423 12.7479 -0.471348 6.7461 -15.6874 -0.420141 -0.0 0.0 0.0 -0.0 0.0 0.0 2.60529e-14 -6.73331e-14 -3.30903e-14 66.6015 17.2952 5.07437 -15.1848 -8.77088 26.7471 -0.0167128 -4.17202 -0.587126 1.99345e-10 -2.11259e-09 8.65416e-11 3.48565e-10 -3.66064e-09 1.48789e-10 1.99347e-10 -2.11259e-09 8.65371e-11 7.73091 5.47488 0.417314 1.99343e-10 -2.11259e-09 8.65349e-11 2.90554 0.965183 0.102902 1.99347e-10 -2.11259e-09 8.65365e-11 10.2786 0.731801 0.0259123 1.99341e-10 -2.11259e-09 8.65441e-11 2.22167 -0.733487 -0.20892 2.59496e-14 -6.73344e-14 -3.33846e-14 -61.32 24.901 -7.67509 14.9211 -8.50929 -26.2731 0.000352201 0.336727 -0.0473233 -4.72952e-10 -2.06398e-09 -3.7856e-10 -8.21556e-10 -3.57472e-09 -6.53174e-10 -4.72954e-10 -2.06397e-09 -3.78553e-10 -7.73091 5.47488 -0.417314 -4.72952e-10 -2.06397e-09 -3.78557e-10 -2.90554 0.965183 -0.102902 -4.72957e-10 -2.06397e-09 -3.78563e-10 -10.2786 0.731801 -0.0259123 -4.72948e-10 -2.06397e-09 -3.7857e-10 -2.22167 -0.733487 0.20892 -2.03217e-16 0.0 -3.88251e-19 1.85774 -19.9454 6.7383 0.00585351 9.66611 0.238337 -3.13574 -18.3682 -7.51766 2.03217e-16 0.0 3.88251e-19 -2.80489 -18.6711 -7.53439 0.0142088 6.83376 -0.0743728 0.533617 -3.16999 0.617794
